<svg width="124" height="96" viewBox="0 0 124 96" fill="none" xmlns="http://www.w3.org/2000/svg">
<g clip-path="url(#clip0)">
<path d="M71.1871 19.6621C70.6769 19.3339 70.083 19.1195 69.4569 19.0375C68.8308 18.9555 68.1913 19.0084 67.5938 19.1915C66.3205 19.5795 65.5095 20.2813 65.5095 21.2226V33.0791C47.6844 33.5497 38.7719 38.545 37.3761 39.4037C28.3504 44.4072 22.2107 51.3593 20.0132 59.0132C18.8964 62.7095 18.7002 66.5727 19.4379 70.3412V70.3412V70.4155L20.1264 73.1485C20.3048 73.6529 20.6571 74.0966 21.1349 74.4189C21.6128 74.7411 22.1928 74.9261 22.7954 74.9484C23.4248 75.0462 24.0721 75.0045 24.6783 74.8271C25.2845 74.6497 25.8304 74.3423 26.2661 73.9329L28.3504 71.588C34.8328 64.3332 42.821 59.5746 52.3152 57.3123C56.6142 56.2867 61.0662 55.8384 65.5189 55.983V68.3266C65.5584 68.82 65.7849 69.2878 66.1624 69.6557C66.54 70.0236 67.047 70.2707 67.6032 70.3577C68.2037 70.523 68.8393 70.5666 69.4618 70.485C70.0843 70.4035 70.6775 70.199 71.1965 69.8871L106.045 46.2154C106.339 46.0443 106.58 45.8123 106.746 45.5401C106.913 45.2678 107 44.9638 107 44.6549C107 44.346 106.913 44.0419 106.746 43.7697C106.58 43.4974 106.339 43.2655 106.045 43.0944L71.1871 19.6621Z" fill="url(#paint0_linear)"/>
<path d="M23.1106 77.9952C22.701 77.9937 22.2918 77.9712 21.8851 77.9279C18.9305 77.5915 16.7075 76.0695 16.185 74.0598L15.4345 70.9402C14.6821 66.8799 14.9088 62.7247 16.0995 58.7474C18.4935 50.4311 25.1437 42.8463 34.7959 37.4058C36.6199 36.2874 45.2461 31.5196 61.881 30.519V20.7479C61.881 18.856 63.458 17.2415 66.1086 16.4258C67.3832 16.0254 68.7485 15.9049 70.0873 16.0748C71.4261 16.2447 72.6982 16.6999 73.7943 17.4012L108.945 41.2655C109.576 41.631 110.095 42.1298 110.453 42.7171C110.812 43.3043 111 43.9614 111 44.629C111 45.2966 110.812 45.9537 110.453 46.5409C110.095 47.1281 109.576 47.627 108.945 47.9925L73.8038 72.0585C72.7358 72.7228 71.5111 73.1634 70.2224 73.347C68.9336 73.5306 67.6146 73.4523 66.3651 73.118C63.648 72.4369 61.881 70.7131 61.881 68.7202V58.6297C59.0227 58.7666 56.1887 59.1696 53.4258 59.8321C44.7236 61.9259 37.2755 66.4667 31.1858 73.3283L29.0863 75.708C28.3464 76.46 27.4257 77.0558 26.3916 77.4516C25.3575 77.8474 24.2364 78.0331 23.1106 77.9952ZM22.5 73L23.2436 73.7312L24.9537 71.7888C29.6811 66.2378 35.8563 61.7821 42.9519 58.8022C50.0474 55.8224 57.8523 54.407 65.7001 54.6769L68.1392 54.7946V68.2241L104.53 44.5954L68.1392 20.2023V34.2195L65.6526 34.3457C48.6472 34.7997 40.496 39.5928 39.622 40.1393L39.4795 40.2318C31.0623 44.9071 25 51.6 22 59.5C21 63.1 21.0104 67.9082 21.7021 71.4861L22.5 73Z" fill="url(#paint1_linear)"/>
<path d="M91.782 93.9999H10.1666C7.47165 93.9953 4.88837 92.8946 2.98274 90.9392C1.07712 88.9838 0.00454378 86.333 1.44265e-05 83.5675V22.4587C-0.00223679 21.0868 0.259006 19.7279 0.768813 18.4597C1.27862 17.1915 2.02699 16.0388 2.97116 15.0675C3.91533 14.0962 5.03678 13.3253 6.27142 12.799C7.50605 12.2727 8.82967 12.0012 10.1666 12H23.3909C23.7846 12 24.1744 12.0796 24.5381 12.2342C24.9018 12.3887 25.2322 12.6153 25.5106 12.901C25.789 13.1866 26.0098 13.5257 26.1604 13.8989C26.3111 14.2721 26.3886 14.6721 26.3886 15.0761C26.3886 15.4801 26.3111 15.8801 26.1604 16.2533C26.0098 16.6265 25.789 16.9656 25.5106 17.2512C25.2322 17.5369 24.9018 17.7634 24.5381 17.918C24.1744 18.0726 23.7846 18.1522 23.3909 18.1522H10.1666C9.0587 18.1614 7.99911 18.619 7.21808 19.4254C6.43706 20.2317 5.9977 21.3218 5.99548 22.4587V83.5675C5.99774 84.709 6.44063 85.803 7.2272 86.6102C8.01377 87.4173 9.07993 87.8718 10.1923 87.8741H91.8077C92.3589 87.8741 92.9046 87.7627 93.4138 87.5463C93.923 87.3298 94.3856 87.0126 94.7753 86.6127C95.165 86.2128 95.4742 85.7381 95.6851 85.2156C95.896 84.6931 96.0045 84.1331 96.0045 83.5675V72.5551C96.0045 71.7393 96.3204 70.9569 96.8826 70.38C97.4447 69.8031 98.2072 69.479 99.0023 69.479C99.7973 69.479 100.56 69.8031 101.122 70.38C101.684 70.9569 102 71.7393 102 72.5551V83.5675C101.999 84.9417 101.733 86.302 101.219 87.5707C100.704 88.8393 99.9509 89.9912 99.0016 90.9604C98.0523 91.9296 96.926 92.697 95.6871 93.2186C94.4482 93.7402 93.1211 94.0057 91.782 93.9999Z" fill="url(#paint2_linear)"/>
</g>
<defs>
<linearGradient id="paint0_linear" x1="35.9803" y1="-6.08475" x2="56.1412" y2="109.609" gradientUnits="userSpaceOnUse">
<stop stop-color="#FC393B"/>
<stop offset="1" stop-color="#851639"/>
</linearGradient>
<linearGradient id="paint1_linear" x1="2.12448" y1="-11.2033" x2="87.9093" y2="98.01" gradientUnits="userSpaceOnUse">
<stop stop-color="white"/>
<stop offset="1" stop-color="#AF795D"/>
</linearGradient>
<linearGradient id="paint2_linear" x1="-13.6802" y1="-23.9785" x2="103.071" y2="95.4296" gradientUnits="userSpaceOnUse">
<stop stop-color="white"/>
<stop offset="1" stop-color="#AF795D"/>
</linearGradient>
<clipPath id="clip0">
<rect width="124" height="96" fill="white"/>
</clipPath>
</defs>
</svg>
