<svg width="108" height="102" viewBox="0 0 108 102" fill="none" xmlns="http://www.w3.org/2000/svg">
<g clip-path="url(#clip0)">
<path d="M102.618 43.2566H83.0635V58.0315H102.618V43.2566Z" fill="url(#paint0_linear)"/>
<path d="M102.618 5.34033H83.0635V20.1152H102.618V5.34033Z" fill="url(#paint1_linear)"/>
<path d="M102.618 81.8848H83.0635V96.6596H102.618V81.8848Z" fill="url(#paint2_linear)"/>
<path d="M80.4616 25.4555H105.309C106.023 25.4555 106.707 25.1742 107.212 24.6734C107.716 24.1727 108 23.4935 108 22.7853V2.67016C108 1.96199 107.716 1.28282 107.212 0.782071C106.707 0.281319 106.023 0 105.309 0L80.4616 0C79.7479 0 79.0635 0.281319 78.5588 0.782071C78.0541 1.28282 77.7706 1.96199 77.7706 2.67016V10.0576H62.7905C59.222 10.0576 55.7996 11.4642 53.2763 13.9679C50.753 16.4717 49.3354 19.8675 49.3354 23.4084V47.9738H28.3723C27.6206 44.5085 25.5935 41.4459 22.6872 39.3847C19.7808 37.3234 16.2043 36.4118 12.6566 36.8279C9.1089 37.244 5.84514 38.958 3.50328 41.6348C1.16142 44.3116 -0.0901662 47.7588 -0.00683314 51.3025C0.0764999 54.8462 1.48877 58.2317 3.9539 60.7972C6.41903 63.3627 9.75981 64.9238 13.3232 65.1752C16.8866 65.4267 20.4164 64.3505 23.2227 62.157C26.0289 59.9636 27.9099 56.8105 28.4979 53.3141H49.3354V78.5916C49.3354 82.1325 50.753 85.5283 53.2763 88.0321C55.7996 90.5358 59.222 91.9424 62.7905 91.9424H77.7706V99.3298C77.7706 100.038 78.0541 100.717 78.5588 101.218C79.0635 101.719 79.7479 102 80.4616 102H105.309C106.023 102 106.707 101.719 107.212 101.218C107.716 100.717 108 100.038 108 99.3298V79.2147C108 78.5065 107.716 77.8273 107.212 77.3266C106.707 76.8258 106.023 76.5445 105.309 76.5445H80.4616C79.7479 76.5445 79.0635 76.8258 78.5588 77.3266C78.0541 77.8273 77.7706 78.5065 77.7706 79.2147V86.6021H62.7905C60.6494 86.6021 58.596 85.7581 57.082 84.2559C55.568 82.7536 54.7175 80.7161 54.7175 78.5916V53.3141H77.7706V60.7016C77.7706 61.4097 78.0541 62.0889 78.5588 62.5897C79.0635 63.0904 79.7479 63.3717 80.4616 63.3717H105.309C106.023 63.3717 106.707 63.0904 107.212 62.5897C107.716 62.0889 108 61.4097 108 60.7016V40.5864C108 39.8782 107.716 39.1991 107.212 38.6983C106.707 38.1976 106.023 37.9162 105.309 37.9162H80.4616C79.7479 37.9162 79.0635 38.1976 78.5588 38.6983C78.0541 39.1991 77.7706 39.8782 77.7706 40.5864V47.9738H54.7175V23.4084C54.7175 21.2839 55.568 19.2464 57.082 17.7441C58.596 16.2419 60.6494 15.3979 62.7905 15.3979H77.7706V22.7853C77.7706 23.4935 78.0541 24.1727 78.5588 24.6734C79.0635 25.1742 79.7479 25.4555 80.4616 25.4555V25.4555ZM83.063 5.34031H102.618V20.1152H83.063V5.34031ZM14.352 60.6126C12.4537 60.6126 10.598 60.054 9.01964 59.0076C7.44126 57.9611 6.21106 56.4737 5.48461 54.7335C4.75815 52.9933 4.56808 51.0784 4.93842 49.2311C5.30876 47.3837 6.22289 45.6867 7.56519 44.3548C8.9075 43.0229 10.6177 42.1159 12.4795 41.7484C14.3414 41.381 16.2712 41.5696 18.025 42.2904C19.7788 43.0112 21.2778 44.2319 22.3325 45.798C23.3871 47.3641 23.95 49.2054 23.95 51.089C23.9476 53.6141 22.9357 56.0351 21.1362 57.8206C19.3367 59.6061 16.8968 60.6102 14.352 60.6126ZM83.063 81.8848H102.618V96.6597H83.063V81.8848ZM83.063 43.2565H102.618V58.0314H83.063V43.2565Z" fill="url(#paint3_linear)"/>
</g>
<defs>
<linearGradient id="paint0_linear" x1="86.8367" y1="36.6383" x2="93.0769" y2="66.7984" gradientUnits="userSpaceOnUse">
<stop stop-color="#FC393B"/>
<stop offset="1" stop-color="#851639"/>
</linearGradient>
<linearGradient id="paint1_linear" x1="86.8367" y1="-1.27795" x2="93.0769" y2="28.8821" gradientUnits="userSpaceOnUse">
<stop stop-color="#FC393B"/>
<stop offset="1" stop-color="#851639"/>
</linearGradient>
<linearGradient id="paint2_linear" x1="86.8367" y1="75.2665" x2="93.0769" y2="105.427" gradientUnits="userSpaceOnUse">
<stop stop-color="#FC393B"/>
<stop offset="1" stop-color="#851639"/>
</linearGradient>
<linearGradient id="paint3_linear" x1="-14.4971" y1="-44.7538" x2="129.385" y2="80.5194" gradientUnits="userSpaceOnUse">
<stop stop-color="white"/>
<stop offset="1" stop-color="#AF795D"/>
</linearGradient>
<clipPath id="clip0">
<path d="M0 0H108V102H0V0Z" fill="white"/>
</clipPath>
</defs>
</svg>
