<svg width="132" height="108" viewBox="0 0 132 108" fill="none" xmlns="http://www.w3.org/2000/svg">
<path d="M121 9.40513e-09H11C8.08262 9.40513e-09 5.28473 1.15893 3.22183 3.22183C1.15893 5.28473 0 8.08262 0 11V72C0 74.9174 1.15893 77.7153 3.22183 79.7782C5.28473 81.8411 8.08262 83 11 83H63.9V96.2C63.9 103.8 77.4 107.7 90.8 107.7C96.9061 107.773 102.984 106.861 108.8 105C116.1 102.4 117.8 98.8 117.9 96.3V82.9H121C123.917 82.9 126.715 81.7411 128.778 79.6782C130.841 77.6153 132 74.8174 132 71.9V10.9C131.974 7.99998 130.803 5.22771 128.743 3.18639C126.683 1.14507 123.9 -0.000119833 121 9.40513e-09ZM69.2 76.6C74.4 79.5 82.7 81 90.9 81C99.1 81 107.3 79.5 112.5 76.7V82.5H112.4C112.4 83 111.4 84.6 107 86.3C101.716 88.0638 96.1693 88.9094 90.6 88.8C76.7 88.8 69.1 84.7 69.1 82.6V76.6H69.2ZM112.5 67.5C112.5 71.5 104.2 75.7 90.9 75.7C76.6 75.7 69.1 70.6 69.2 67.5C69.2806 65.0013 76.6 61.3 90.9 61.3C103 61 112.5 65 112.5 67.5ZM100 56.5C96.9831 56.1011 93.9432 55.9006 90.9 55.9C81.1 55.9 71.3 58 66.6 62L34.6 62.1C33.2 55.7 27.6 51.3 19.9 50.4V32.5C23.5433 32.134 27.0094 30.7476 29.9 28.5C32.294 26.5229 33.979 23.82 34.7 20.8H97.5C98.8 26.4 103.5 31.5 112.1 32.5V50.3C106.9 51 102.7 53.1 100 56.5ZM90.7 102.3C85.1966 102.402 79.7167 101.556 74.5 99.8C70.6 98.4 69.2 96.8 69.2 96.1V89.7C70.3383 90.2933 71.5066 90.8273 72.7 91.3C77.5 93.1 83.9 94 90.7 94C96.8812 94.0997 103.035 93.153 108.9 91.2C110.178 90.7358 111.415 90.1673 112.6 89.5V96C112.3 98.2 104.5 102.3 90.7 102.3ZM126.7 72C126.701 72.7358 126.557 73.4646 126.276 74.1446C125.995 74.8246 125.583 75.4425 125.063 75.9627C124.542 76.483 123.925 76.8954 123.245 77.1764C122.565 77.4574 121.836 77.6013 121.1 77.6H118V70.6C118.083 70.2057 118.116 67.8026 118.1 67.4C118.1 62.9 113.3 59.6 106.6 57.8C109.103 56.2862 111.975 55.4905 114.9 55.5C115.25 55.4989 115.595 55.4275 115.917 55.2902C116.238 55.1528 116.529 54.9523 116.772 54.7004C117.014 54.4486 117.204 54.1506 117.329 53.8241C117.454 53.4977 117.512 53.1494 117.5 52.8V30.1C117.491 29.4039 117.217 28.7373 116.734 28.2359C116.251 27.7344 115.595 27.4355 114.9 27.4C107.7 27.3 102.9 23.6 102.6 18.1C102.561 17.4148 102.258 16.7713 101.755 16.305C101.251 15.8387 100.586 15.586 99.9 15.6H32.3C31.6186 15.6028 30.9631 15.8612 30.4631 16.3241C29.9631 16.7871 29.6551 17.4208 29.6 18.1C29.3 23.6 24.5 27.3 17.2 27.4C16.8504 27.4011 16.5046 27.4725 16.1831 27.6098C15.8616 27.7472 15.5709 27.9477 15.3284 28.1996C15.0859 28.4514 14.8965 28.7494 14.7713 29.0759C14.6462 29.4023 14.5879 29.7506 14.6 30.1V52.9C14.6093 53.5961 14.8832 54.2627 15.3661 54.7641C15.849 55.2656 16.5047 55.5645 17.2 55.6C24.6 55.7 29.4 59.3 29.6 64.9C29.6387 65.5852 29.9418 66.2287 30.4454 66.695C30.9489 67.1613 31.6138 67.414 32.3 67.4L63.8 67.3V77.5H11C10.2642 77.5013 9.53543 77.3574 8.85542 77.0764C8.1754 76.7954 7.55753 76.383 7.03726 75.8627C6.51699 75.3425 6.10455 74.7246 5.82359 74.0446C5.54263 73.3646 5.39868 72.6358 5.4 71.9V10.9C5.39868 10.1642 5.54263 9.43543 5.82359 8.75541C6.10455 8.0754 6.51699 7.45753 7.03726 6.93726C7.55753 6.41699 8.1754 6.00455 8.85542 5.72359C9.53543 5.44263 10.2642 5.29868 11 5.3H121C121.736 5.29868 122.465 5.44263 123.145 5.72359C123.825 6.00455 124.442 6.41699 124.963 6.93726C125.483 7.45753 125.895 8.0754 126.176 8.75541C126.457 9.43543 126.601 10.1642 126.6 10.9V72H126.7Z" fill="url(#paint0_linear)"/>
<path d="M97.5 20.5H34.7371C34.016 23.52 32.394 26.5229 30 28.5C27.1094 30.7476 23.5432 32.134 19.8999 32.5V50.6806C27.5999 51.5806 33.1999 55.9806 34.5999 62.3806L66.5999 62.2806C71.2999 58.2806 81.0999 56.1806 90.8999 56.1806C93.9431 56.1812 96.983 56.3816 99.9999 56.7806C102.7 53.3806 106.9 51.2806 112.1 50.5806V32.5C104 31.7194 98.8 26.1 97.5 20.5ZM65.9999 57.6806C62.8354 57.6806 59.742 56.7422 57.1108 54.9841C54.4796 53.226 52.4288 50.7271 51.2178 47.8035C50.0068 44.8799 49.69 41.6628 50.3073 38.5591C50.9247 35.4554 52.4486 32.6045 54.6862 30.3669C56.9238 28.1292 59.7748 26.6054 62.8785 25.988C65.9822 25.3706 69.1992 25.6875 72.1228 26.8985C75.0465 28.1095 77.5453 30.1603 79.3034 32.7914C81.0615 35.4226 81.9999 38.5161 81.9999 41.6806C81.9999 45.924 80.3142 49.9937 77.3136 52.9943C74.313 55.9949 70.2434 57.6806 65.9999 57.6806Z" fill="url(#paint1_linear)"/>
<path d="M66 25.6804C62.8355 25.6804 59.7421 26.6188 57.1109 28.3769C54.4797 30.135 52.4289 32.6339 51.2179 35.5575C50.0069 38.4811 49.6901 41.6982 50.3074 44.8019C50.9248 47.9056 52.4487 50.7565 54.6863 52.9941C56.9239 55.2318 59.7749 56.7556 62.8786 57.373C65.9823 57.9903 69.1993 57.6735 72.1229 56.4625C75.0466 55.2515 77.5454 53.2007 79.3035 50.5695C81.0616 47.9384 82 44.8449 82 41.6804C82 37.437 80.3143 33.3673 77.3137 30.3667C74.3131 27.3661 70.2435 25.6804 66 25.6804ZM66 52.4804C63.8837 52.4804 61.815 51.8529 60.0554 50.6771C58.2958 49.5014 56.9244 47.8303 56.1145 45.8751C55.3046 43.92 55.0927 41.7686 55.5056 39.693C55.9185 37.6174 56.9375 35.7108 58.434 34.2144C59.9304 32.718 61.8369 31.6989 63.9125 31.286C65.9881 30.8732 68.1396 31.0851 70.0947 31.8949C72.0499 32.7048 73.721 34.0762 74.8967 35.8358C76.0725 37.5954 76.7 39.6642 76.7 41.7804C76.6974 44.6174 75.5692 47.3375 73.5631 49.3435C71.5571 51.3496 68.837 52.4778 66 52.4804Z" fill="url(#paint2_linear)"/>
<defs>
<linearGradient id="paint0_linear" x1="-16.45" y1="-43.2095" x2="131.17" y2="108.95" gradientUnits="userSpaceOnUse">
<stop stop-color="white"/>
<stop offset="1" stop-color="#AF795D"/>
</linearGradient>
<linearGradient id="paint1_linear" x1="19.7499" y1="-4.51943" x2="100.2" y2="75.9306" gradientUnits="userSpaceOnUse">
<stop stop-color="#FC393B"/>
<stop offset="1" stop-color="#851639"/>
</linearGradient>
<linearGradient id="paint2_linear" x1="-506.48" y1="4862.16" x2="4217.36" y2="-6.63938" gradientUnits="userSpaceOnUse">
<stop stop-color="white"/>
<stop offset="1" stop-color="#AF795D"/>
</linearGradient>
</defs>
</svg>
